# xmcd
#
# Track frame offsets: 
#        150
#        8800
#        16806
#        26478
#        36418
#        47687
#        57365
#        66191
#        75641
#        83610
#        95134
#        107508
#        115781
#        125119
#        135467
#        143716
#        153219
#        163419
#
# Disc length: 2309 seconds
#
# Revision: 3
# Processed by: cddbd v1.5.2PL0 Copyright (c) Steve Scherf et al.
# Submitted via: ExactAudioCopyFreeDBPlugin 1.0
#
DISCID=e8090312
DTITLE=Johnny Cash - Trilogy 1 Songs Of Our Soil
DYEAR=2010
DGENRE=Country
TTITLE0=Drink To Me
TTITLE1=Five Feet High And Rising
TTITLE2=Man On The Hill, The
TTITLE3=Hank And Joe And Me
TTITLE4=Clementine
TTITLE5=Great Speckled Bird, The
TTITLE6=I Want To Go Home
TTITLE7=Caretaker, The
TTITLE8=Old Apache Squaw
TTITLE9=Don't Step On Mother's Roses
TTITLE10=My Grandfather's Clock
TTITLE11=It Could Be You (Instead Of Him)
TTITLE12=I Got Stripes
TTITLE13=Frankie's Man, Johnny
TTITLE14=You Dreamer You
TTITLE15=I'll Remember You
TTITLE16=Wabash Blues
TTITLE17=Bandana
EXTD=
EXTT0=
EXTT1=
EXTT2=
EXTT3=
EXTT4=
EXTT5=
EXTT6=
EXTT7=
EXTT8=
EXTT9=
EXTT10=
EXTT11=
EXTT12=
EXTT13=
EXTT14=
EXTT15=
EXTT16=
EXTT17=
PLAYORDER=
